<svg width="512" height="512" viewBox="0 0 512 512" fill="none" xmlns="http://www.w3.org/2000/svg">
<circle cx="256" cy="256" r="250" fill="#1A1A1A" stroke="#DAA520" stroke-width="12"/>
<path d="M73.0802 368H69.0842L168.651 134.9L172.314 133.235L256.23 368H227.925L201.951 294.74H104.715L73.0802 368ZM158.328 170.864L106.047 291.41H200.952L158.328 170.864ZM286.302 137.564C312.054 135.788 334.809 134.9 354.567 134.9C409.401 134.9 436.818 153.215 436.818 189.845C436.818 203.609 432.822 215.486 424.83 225.476C416.838 235.244 404.073 241.904 386.535 245.456C403.407 247.454 416.727 252.56 426.495 260.774C436.263 268.988 441.147 283.307 441.147 303.731C441.147 346.577 413.73 368 358.896 368H286.302V137.564ZM313.941 364.67H358.896C378.654 364.67 392.64 359.564 400.854 349.352C409.29 338.918 413.508 323.045 413.508 301.733C413.508 280.421 409.29 266.213 400.854 259.109C392.418 252.005 379.875 248.231 363.225 247.787H313.941V364.67ZM354.567 138.23C341.691 138.23 328.149 139.007 313.941 140.561V244.457H363.225C394.527 243.125 410.178 225.143 410.178 190.511C410.178 173.639 405.516 160.763 396.192 151.883C386.868 142.781 372.993 138.23 354.567 138.23Z" fill="#DAA520"/>
</svg>
